<svg width="746" height="652" viewBox="0 0 746 652" fill="none" xmlns="http://www.w3.org/2000/svg">
<path d="M0.223764 38.7999C59.9838 26.3099 123.164 11.3 182.404 0C182.894 34.6 182.664 71.8799 183.784 106.17C204.434 103.4 231.754 96.7199 252.614 92.2899L388.834 63.14C414.714 57.44 449.514 48.7399 475.044 44.9199L478.834 44.2799C489.414 41.1699 499.804 39.6599 510.384 37.0199L510.524 111.48C510.514 126.59 510.054 144.64 511.064 159.39L662.684 126.5C683.794 121.95 707.244 116.33 728.194 112.49C728.334 153.36 725.974 202.11 724.054 242.76L744.504 238.79C746.104 313.76 746.124 396.56 745.844 471.59C720.604 478.43 688.964 484.58 663.244 490.25C624.694 498.76 586.214 507.61 547.814 516.79L401.674 651.34C401.994 619.11 402.424 580.9 401.274 548.87C366.714 554.99 330.284 563.78 295.594 571.01L94.4237 612.7L91.1036 475.11C90.6436 459.45 91.1537 433.38 89.5437 418.93C81.9537 420.42 74.3537 421.86 66.7437 423.26C56.0637 372.07 40.2737 314.5 26.4037 264.03C22.9337 251.29 19.5537 238.52 16.2837 225.72C12.8737 212.37 16.0937 211.23 4.48365 203.47C2.85365 190.34 3.48375 173.22 3.33375 159.56C2.89375 120.26 -0.956236 77.8199 0.223764 38.7999Z" fill="#0D74C8"/>
<path d="M475.043 44.9199L478.833 44.2799C482.113 44.3199 486.673 43.9299 489.323 45.4999C486.533 48.8699 481.524 48.2799 477.414 48.1799C475.684 46.4299 476.153 47.1399 475.043 44.9199Z" fill="#0D74C8"/>
<path d="M341.154 111.53C364.184 105.26 393.354 98.3598 416.934 94.5598C429.604 93.0098 448.033 95.6898 457.333 105.07C485.283 133.26 475.864 186.58 451.684 213.31C461.324 237.24 471.674 261.05 480.874 285.15C482.234 288.7 483.834 291.94 482.444 294.91C482.274 300.07 483.094 298.8 480.344 301.93C477.384 302.34 478.144 302.67 475.664 301.81L476.224 301.45C469.384 301.11 458.173 300.22 452.553 304.95C456.593 304.52 471.964 302.17 474.144 303.28C471.904 304.79 473.344 304.01 470.424 304.37C469.504 305.43 468.574 306.48 467.654 307.53C456.374 309.97 444.364 309.77 432.854 311.07C430.864 311.29 429.634 309.18 425.374 310.41C424.374 308.66 424.424 309.49 424.674 308.02C421.434 297.97 418.424 288.23 414.514 278.41C411.764 275.45 411.664 275.18 407.974 273.85L406.224 274.57C404.604 278.63 401.684 305.42 403.684 310.26C403.954 310.91 404.234 311.56 404.524 312.2C403.294 314.98 399.354 315.94 395.884 317.57L396.563 317.4C390.413 319.83 381.933 324.11 376.553 321.55C375.123 320.87 373.004 321.44 371.414 321.8C366.114 327.69 358.024 331.69 350.174 328.68L349.594 327.54C356.244 325.12 361.603 328.28 367.553 323.63C362.883 320.9 350.124 329.65 344.224 325.86C344.844 294.56 343.524 257.56 342.844 226.07L341.154 111.53Z" fill="#F8F7F9"/>
<path d="M349.874 116.88C356.914 113.32 364.704 113.2 367.444 111.08L366.204 109.45C374.284 105.31 386.814 108.71 395.794 104.81C396.214 104.63 407.984 104.66 409.314 104.63L407.694 104.47C404.094 104.08 398.054 102.89 394.644 101.85C405.214 96.72 434.764 100.76 445.934 104.67C454.064 107.52 459.534 109.88 463.334 118.05C469.754 131.85 473.884 160.04 468.694 174.54C466.314 181.17 464.534 190.92 461.054 196.71C458.104 201.61 452.314 205.6 450.384 210.99C447.224 219.8 469.654 266.05 474.104 277.23C475.094 279.73 475.084 282.61 476.054 285.01C476.514 286.17 476.874 286.5 477.574 287.36L477.564 288.21C467.364 291.99 456.834 295.14 446.214 297.79C441.464 298.97 430.814 297.96 428.614 299.71C429.284 300.7 429.994 301.78 430.684 302.74L429.984 303.78C427.854 303.52 428.434 303.65 426.464 302.93C425.854 298.89 423.884 286.5 421.784 283.21L421.774 283.65C418.954 276.75 414.784 264.42 408.684 260.77C406.734 255.77 405.004 249.74 403.464 244.54L403.214 241.49L401.984 240.67C395.254 247.25 400.164 292.79 396.594 306.83L397.664 309.71L395.964 310.6L395.164 310.13L395.314 305.79L393.924 304.89L390.724 305.78L390.124 307.01L389.834 306.97L390.784 309.64L391.814 307.84L390.994 309.25C381.284 315.7 378.174 311.43 368.484 313.74C362.514 315.15 357.684 321.48 350.064 320.3C345.594 315.57 349.044 299.39 348.674 291.83C347.604 270.46 348.514 248.97 347.654 227.59C347.494 216.68 349.244 202.68 349.414 190.69C349.624 175.94 349.724 161.2 349.704 146.46C349.644 137.13 349.054 125.96 349.874 116.88Z" fill="#F8F7F9"/>
<path d="M400.254 146.23C422.014 145.83 418.074 177.4 410.874 189.35L400.844 197.26C399.224 185.84 399.964 158.54 400.254 146.23Z" fill="#0D74C8"/>
<path d="M393.424 255.52C394.154 256.52 394.634 257.24 394.714 259.03C395.344 273.13 396.814 287.64 396.344 301.71C395.724 302.5 395.094 303.29 394.474 304.07L393.284 303.51C390.354 297.84 393.294 263.71 393.424 255.52Z" fill="#F8F7F9"/>
<path d="M401.644 312.71C401.634 293.41 400.754 263.79 402.254 245.1L403.464 244.54C405.004 249.74 406.734 255.77 408.684 260.77L414.514 278.41C411.764 275.45 411.664 275.18 407.974 273.85L406.224 274.57C404.604 278.63 401.684 305.42 403.684 310.26C403.954 310.91 404.234 311.56 404.524 312.2C403.294 314.98 399.354 315.94 395.884 317.57L396.563 317.4C390.413 319.83 381.933 324.11 376.553 321.55C375.123 320.87 373.004 321.44 371.414 321.8C366.114 327.69 358.024 331.69 350.174 328.68L349.594 327.54C356.244 325.12 361.603 328.28 367.553 323.63C362.883 320.9 350.124 329.65 344.224 325.86C350.134 323.17 393.974 313.91 401.644 312.71Z" fill="#0D74C8"/>
<path d="M424.674 308.02C437.934 304.55 469.474 296.98 482.444 294.91C482.274 300.07 483.094 298.8 480.344 301.93C477.384 302.34 478.144 302.67 475.664 301.81L476.224 301.45C469.384 301.11 458.174 300.22 452.554 304.95C456.594 304.52 471.964 302.17 474.144 303.28C471.904 304.79 473.344 304.01 470.424 304.37C469.504 305.43 468.574 306.48 467.654 307.53C456.374 309.97 444.364 309.77 432.854 311.07C430.864 311.29 429.634 309.18 425.374 310.41C424.374 308.66 424.424 309.49 424.674 308.02Z" fill="#0D74C8"/>
<path d="M223.354 138.85C247.334 134.68 270.884 126.53 294.414 123.03C303.244 166.1 312.373 209.11 321.793 252.06C326.893 275.82 333.544 303.07 337.354 326.91C318.554 330.52 299.454 335.39 280.694 339.54C279.754 333.03 278.674 326.53 277.464 320.06C268.654 328.44 255.903 323.96 250.053 329.22L247.464 346.98C228.744 350.43 208.994 355.65 189.734 359.37L218.534 175.82L219.924 164.47C221.534 155.32 222.414 148.02 223.354 138.85Z" fill="#F8F7F9"/>
<path d="M250.053 329.22L250.994 323.01C254.714 317.63 271.314 313.79 276.624 316.78L277.464 320.06C268.654 328.44 255.903 323.96 250.053 329.22Z" fill="#0D74C8"/>
<path d="M292.494 128.32C293.704 154.63 308.264 186.14 308.274 217.62C309.864 216.56 309.184 216.74 310.964 216.49L312.444 218.8C312.324 241.13 324.673 276.41 328.833 299.33C329.743 304.39 331.983 319.65 334.053 323.4C329.103 328.74 308.323 325.11 301.313 329.34C296.193 332.43 290.633 333.92 284.923 335.58L283.754 334.67C284.324 308.81 270.204 306.9 249.984 317.14C248.074 319.79 246.634 330.46 245.514 334.97L244.994 334.53C243.964 331.52 242.713 329.15 243.393 326.17C244.243 331.01 241.293 338.02 239.163 342.31C228.673 343.81 217.004 348.68 205.724 351.14L207.224 351.47C204.064 352.95 202.073 351.85 198.603 350.81L196.093 350.3C195.653 346.05 197.113 320.78 200.073 317.1L201.204 317.16C201.054 320.35 200.373 324.34 202.043 326.77C205.743 324.94 199.104 299.96 204.514 291.5C204.264 287.95 203.623 282.42 205.403 279.42C206.623 284.03 206.814 287.81 208.254 292.59C209.674 288.93 209.403 281.29 208.083 276.81C205.483 267.92 210.563 247.89 212.133 238.24C212.603 235.32 218.113 227.55 218.913 221.24C221.273 215.44 216.764 206.66 217.284 202.26C218.154 194.86 221.003 186.55 221.653 178.49L222.954 178.69C220.794 182.1 221.874 188.24 222.514 192.13C226.304 187.35 221.013 151.31 227.403 141.69L228.724 142.63C227.974 145.87 227.633 146.73 227.813 150.15L229.353 150.93C229.123 138.94 239.193 141.06 246.633 139.86C245.033 138.54 245.854 139.27 244.194 137.65L246.093 136.3C252.733 135.87 250.563 135.23 255.793 137.7C259.063 137.7 259.984 136.56 262.524 134.47C267.304 130.52 270.184 134.6 275.974 132.84C273.544 132.18 271.753 131.95 269.293 131.58C271.393 130.93 273.513 130.31 275.623 129.7C281.733 127.96 281.034 127.62 286.784 130.88L287.853 131.5C291.313 130.49 289.704 131.31 292.494 128.32Z" fill="#F8F7F9"/>
<path d="M261.043 210.77C263.113 213.29 268.673 262.29 268.923 268.92C266.403 271.62 265.753 270.98 261.363 272.03L257.903 272.72L256.524 271.78C255.734 263.92 259.883 220.26 261.043 210.77Z" fill="#0D74C8"/>
<path d="M160.573 154.04C175.153 150.72 190.544 146.89 205.184 144.35C203.514 166.77 198.873 191.59 195.583 214.01C188.273 263.87 178.513 314.01 171.573 363.85C148.433 368.21 122.814 374.52 99.6836 379.8C95.2836 365.94 91.5336 346.91 88.2136 332.44L72.2936 265.29L58.9935 208.52C57.1235 200.47 53.4835 187.26 52.6235 179.44C71.7035 174.91 95.3835 168.69 114.234 165.31C115.994 177.08 117.874 188.82 119.864 200.55C121.944 215.86 129.744 260.41 129.734 272.32C130.624 275.19 129.774 274.17 132.154 275.66L132.254 276.2L132.824 276.48C133.204 274 133.334 272.58 134.654 270.36C136.414 248 138.284 225.64 140.264 203.29C141.044 194.98 144.764 164.53 143.604 158.44C149.274 157.04 154.933 155.57 160.573 154.04Z" fill="#F8F7F9"/>
<path d="M160.573 154.04C175.153 150.72 190.544 146.89 205.184 144.35C203.514 166.77 198.873 191.59 195.583 214.01C188.273 263.87 178.513 314.01 171.573 363.85C148.433 368.21 122.814 374.52 99.6836 379.8C95.2836 365.94 91.5336 346.91 88.2136 332.44L72.2936 265.29L58.9935 208.52C57.1235 200.47 53.4835 187.26 52.6235 179.44C71.7035 174.91 95.3835 168.69 114.234 165.31C115.994 177.08 117.874 188.82 119.864 200.55C116.134 195.79 114.864 189.28 113.934 183.36C111.664 169 107.624 176.92 100.484 170.55C96.6735 170.57 89.8235 175.83 84.3835 177.39C77.7635 179.28 61.3636 178.45 56.4036 182.11C56.7036 187.96 58.9036 193.72 61.1436 199.08C66.1136 210.94 66.0435 228.26 70.7535 239.85C71.4235 236.93 70.9936 232.92 70.8436 229.83C76.1136 240.09 71.7636 249.84 74.4436 259.96C77.2436 270.59 90.7136 320.52 90.4636 328.46L91.5836 329.62C93.4536 327.06 92.6536 327.06 92.1736 322.76L93.8136 323.09C97.9236 331.57 91.3335 344.07 96.7535 353.26C97.7735 354.99 97.0136 356.93 99.1436 359.29C99.6736 356.72 99.5536 354.25 99.5836 351.62L100.634 353.64L101.434 353.75C100.924 358.97 99.5636 367.26 101.194 371.81C104.324 373.26 124.464 369.73 128.734 368.53C129.574 368.3 136.414 368.68 137.654 368.75C138.704 366.52 138.474 367.68 137.924 365.17C179.874 358.45 170.823 349.96 173.303 311.69C174.493 313.46 174.473 313.71 175.303 315.71L176.244 315.72C178.304 307.3 176.684 296.72 179.724 288.16C181.774 282.39 176.934 277.47 177.994 271.16L180.014 281.43L181.094 281.46C183.284 276.72 185.594 251.88 186.714 244.92L192.954 206.49C193.654 202.08 194.723 197.75 195.333 193.34C195.893 189.31 192.903 175.95 196.543 173.98C196.753 175.61 196.943 177.72 197.333 179.27C197.923 178.27 201.393 151.9 201.293 149.69C195.933 149.42 178.143 153.11 173.333 155.92C165.853 160.28 152.004 156.4 146.864 161.92C147.644 170.02 149.474 180.97 148.764 188.58C148.214 185.29 148.584 183.18 146.634 181.61C143.644 186.37 142.974 233.77 142.994 241.72L141.184 238.83L139.974 238.59C138.354 243.98 140.324 250.07 139.814 256.15C139.164 263.82 137.434 269.74 135.994 276.91L134.924 277.71L134.654 270.36C136.414 248 138.284 225.64 140.264 203.29C141.044 194.98 144.764 164.53 143.604 158.44C149.274 157.04 154.933 155.57 160.573 154.04Z" fill="#F8F7F9"/>
<path d="M129.733 272.32C130.623 275.19 129.773 274.17 132.153 275.66L132.253 276.2L132.823 276.48C133.203 274 133.333 272.58 134.653 270.36L134.923 277.71C134.653 282.79 134.343 290.86 133.063 295.61C131.063 290.41 130.303 278.17 129.733 272.32Z" fill="#0D74C8"/>
<path d="M362.134 344.79C387.854 339.43 413.104 330.98 439.514 330.42C478.684 329.59 482.984 386.37 459.004 405.2L458.514 407.6C467.544 410.68 471.514 413.58 476.724 421.76C481.954 433.87 481.494 440.08 480.474 453.05C480.294 455.4 479.494 459.48 479.644 461.48C475.144 474.83 473.204 477.21 464.714 488.16L464.944 491C460.244 496.25 458.474 498.12 452.904 502.72L453.704 502.47C444.194 509.17 426.264 519.02 415.374 512.39C403.174 512.65 405.754 518.87 392.964 514.59C390.044 515.24 384.023 516.74 381.303 516.95C375.983 518.46 369.513 519.86 364.063 521.19C363.853 462.39 363.204 403.59 362.134 344.79Z" fill="#F8F7F9"/>
<path d="M362.134 344.79C387.854 339.43 413.104 330.98 439.514 330.42C478.684 329.59 482.984 386.37 459.004 405.2C458.174 398.89 463.644 396.88 466.354 391.49C466.654 390.88 463.694 382.7 464.714 379.24L465.664 380.56C466.644 381.91 466.874 382.25 468.184 383.35C474.054 378.17 468.634 345.28 458.604 340.66C458.384 343.52 460.644 346.85 462.114 349.84C452.584 339.79 449.384 336.33 434.384 336.05C427.444 335.92 404.494 335.72 400.154 339.71C402.134 340.27 406.334 340.83 407.534 341.57C403.904 344.92 375.744 339.64 373.114 346.87C369.224 357.54 371.034 385.5 371.144 396.58L371.414 463.76C371.414 472.3 371.774 494.01 370.114 501.22C369.184 497.37 368.864 491.23 368.514 487.11C366.974 488.53 367.354 511.21 367.374 515.21C368.564 515.59 368.843 515.76 370.083 515.92C375.093 518.82 374.363 516.07 381.303 516.95C375.983 518.46 369.513 519.86 364.063 521.19C363.853 462.39 363.204 403.59 362.134 344.79Z" fill="#F8F7F9"/>
<path d="M458.514 407.6C467.544 410.68 471.514 413.58 476.724 421.76C481.954 433.87 481.494 440.08 480.474 453.05C480.294 455.4 479.494 459.48 479.644 461.48C475.144 474.83 473.204 477.21 464.714 488.16L464.944 491C460.244 496.25 458.474 498.12 452.904 502.72L453.704 502.47C444.194 509.17 426.264 519.02 415.374 512.39C403.174 512.65 405.754 518.87 392.964 514.59C390.044 515.24 384.023 516.74 381.303 516.95C374.363 516.07 375.093 518.82 370.083 515.92C371.233 515.78 381.073 512.47 381.583 511.87L377.974 511.1C386.394 506.99 399.914 508.49 410.034 505.37L412.394 508.08C417.904 503.93 411.804 505.36 415.984 503.23C422.994 499.65 434.364 500.53 442.264 499.38C443.404 498.22 444.374 497.25 445.154 496.46C444.024 495.63 443.494 495.62 442.144 495.3C457.974 491.19 454.234 490.48 466.744 481.11C469.514 479.03 467.534 469.78 469.644 467.69L472.404 473.07C472.954 471.06 473.224 469.49 474.354 467.78C478.894 460.9 477.094 451.78 476.354 443.58L476.204 444.09L475.884 441.18C477.564 440.29 477.274 440.47 478.714 439.34C475.414 414.3 464.084 423.08 458.514 407.6Z" fill="#F8F7F9"/>
<path d="M464.714 488.16L464.944 491C460.244 496.25 458.474 498.12 452.904 502.72L453.704 502.47C444.194 509.17 426.264 519.02 415.374 512.39C403.174 512.65 405.754 518.87 392.964 514.59C421.094 507.28 442.094 508.64 464.714 488.16Z" fill="#0D74C8"/>
<path d="M413.494 438.31C431.724 436.06 435.994 448.34 427.024 462.48C422.414 465.82 419.183 466.38 413.793 467.89C413.423 458.47 413.554 447.84 413.494 438.31Z" fill="#0D74C8"/>
<path d="M412.314 375.12C429.284 373.23 428.114 387.16 421.964 398.24C419.054 400.14 417.884 401.53 414.474 401.22C410.094 396.42 412.084 382.74 412.314 375.12Z" fill="#0D74C8"/>
<path d="M591.974 304.11C592.294 300.94 592.224 296.8 594.194 294.61C602.534 291.01 612.454 290.09 620.854 287.95C645.824 281.57 691.073 269.79 703.303 302.77C713.733 330.88 706.653 356.62 688.063 378.26C694.823 396.96 709.593 428.08 714.293 444.79C659.953 455.37 664.423 470.36 647.573 411.19L646.543 409.8L645.313 410.07C644.243 419.37 645.694 426.94 643.944 436.56C643.884 442.85 643.464 454.34 644.134 460.2C640.614 468.09 624.354 474.58 617.694 470.73C619.314 468.8 619.903 469.29 623.063 468.65C618.843 468.52 616.664 468.15 612.714 469.55C613.474 470.46 614.084 471.16 614.884 472.05C609.844 475.84 604.964 475.54 598.874 475.58L596.244 473.93L596.404 472.83L597.563 472.41L598.254 471.58L597.924 471.34L597.764 472.19L596.594 471.06L594.614 470.73C594.624 463.08 594.754 455.59 594.024 447.97L593.974 444.78C594.724 432.65 594.324 419.32 593.924 407.17C592.784 373.07 594.124 338.09 591.974 304.11Z" fill="#F8F7F9"/>
<path d="M591.974 304.11C592.294 300.94 592.224 296.8 594.194 294.61C602.534 291.01 612.454 290.09 620.854 287.95C645.824 281.57 691.073 269.79 703.303 302.77C713.733 330.88 706.653 356.62 688.063 378.26C694.823 396.96 709.593 428.08 714.293 444.79C659.953 455.37 664.423 470.36 647.573 411.19C649.513 412.13 649.363 412.19 651.083 413.58C654.313 422.81 660.864 429.28 662.424 436.8C663.184 440.45 661.404 441.88 664.204 448.65C669.254 445.65 669.834 450.66 675.254 449.45C675.314 448.08 675.174 448.84 675.884 447.22C688.554 445.88 694.934 443.15 708.024 442.78C708.494 442.37 708.964 441.95 709.434 441.54C702.934 425.08 692.903 400.96 687.063 385.21C682.733 373.55 690.804 371.27 696.624 362.82C696.254 363.36 697.274 356.02 697.344 355.67L698.674 357.07L699.404 357.06C706.924 338.32 706.914 308.24 691.934 292.78C689.644 290.42 688.854 288.73 685.634 288.72L686.654 291.45C681.774 290.08 674.894 288.37 670.434 286.39C671.684 285.44 671.534 285.7 672.474 284.48L663.313 284.65C658.273 288.16 656.724 285.57 649.604 285.5L650.384 286.78C652.344 286.94 653.084 287.03 654.994 287.45C640.724 290.41 604.443 292.82 596.823 301.34C594.563 310.59 596.634 340.82 596.964 352.09C597.334 367.45 597.494 382.82 597.444 398.18C597.464 419.7 597.304 441.32 597.124 462.83C597.104 465.18 597.624 465.08 599.214 466.29C602.974 466.58 602.274 467.14 604.494 465.39C603.324 463.69 603.583 464.59 603.553 462.73C610.333 466.38 620.453 461.19 627.063 458.17C633.723 455.13 636.114 458.23 639.984 455.91C642.124 449.12 638.793 422.23 642.803 404.83L644.764 403.7C645.204 405.15 646.293 408.48 646.543 409.8L645.313 410.07C644.243 419.37 645.694 426.94 643.944 436.56C643.884 442.85 643.464 454.34 644.134 460.2C640.614 468.09 624.354 474.58 617.694 470.73C619.314 468.8 619.903 469.29 623.063 468.65C618.843 468.52 616.664 468.15 612.714 469.55C613.474 470.46 614.084 471.16 614.884 472.05C609.844 475.84 604.964 475.54 598.874 475.58L596.244 473.93L596.404 472.83L597.563 472.41L598.254 471.58L597.924 471.34L597.764 472.19L596.594 471.06L594.614 470.73C594.624 463.08 594.754 455.59 594.024 447.97L593.974 444.78C594.724 432.65 594.324 419.32 593.924 407.17C592.784 373.07 594.124 338.09 591.974 304.11Z" fill="#F8F7F9"/>
<path d="M644.134 460.2C640.614 468.09 624.354 474.58 617.694 470.73C619.314 468.8 619.903 469.29 623.063 468.65C618.843 468.52 616.664 468.15 612.714 469.55C613.474 470.46 614.084 471.16 614.884 472.05C609.844 475.84 604.964 475.54 598.874 475.58L596.244 473.93L596.404 472.83L597.563 472.41L598.254 471.58L597.924 471.34L597.764 472.19L596.594 471.06L594.614 470.73C609.084 467.85 630.534 461.9 644.134 460.2Z" fill="#0D74C8"/>
<path d="M644.764 403.7C645.204 405.15 646.294 408.48 646.544 409.8L645.314 410.07C644.244 419.37 645.694 426.94 643.944 436.56C643.844 429.65 643.114 409.54 644.764 403.7Z" fill="#0D74C8"/>
<path d="M643.224 324.86C652.414 324.64 656.384 327.56 657.924 337.18C659.244 345.33 657.254 353.67 652.384 360.34C649.774 362.28 648.604 363.57 645.384 363.92C642.484 360.96 643.424 331.54 643.224 324.86Z" fill="#0D74C8"/>
<path d="M488.854 317.51C514.864 311.24 552.634 302.06 578.774 297.53C578.784 307.67 578.944 317.81 579.234 327.95L580.104 327.57L583.004 323.62L587.904 320.77C587.804 320.15 587.714 319.52 587.634 318.89C587.054 313.96 587.494 312.94 590.504 309.09C590.484 305.32 589.894 306.89 591.974 304.11C594.124 338.09 592.784 373.07 593.924 407.17C594.324 419.32 594.724 432.65 593.974 444.78C591.784 439.31 592.714 423.88 591.934 416.65C591.134 424.85 592.374 442.86 590.094 448.35C588.404 441.31 589.234 439.13 590.474 432.01C591.044 428.62 591.544 427.42 590.414 424.15L588.543 422.98C581.253 425.75 583.024 439.88 583.674 446.3L582.104 452.73C581.944 459.6 581.824 466.48 581.744 473.36L491.124 493.63C490.694 475.66 490.374 457.7 490.164 439.73C490.034 434.69 490.084 431.44 489.144 426.43C489.904 416.57 489.234 399.6 489.134 389.27C488.774 365.35 488.684 341.43 488.854 317.51Z" fill="#F8F7F9"/>
<path d="M590.504 309.09C590.484 305.32 589.894 306.89 591.974 304.11C594.124 338.09 592.784 373.07 593.924 407.17C594.324 419.32 594.724 432.65 593.974 444.78C591.784 439.31 592.714 423.88 591.934 416.65C591.134 424.85 592.374 442.86 590.094 448.35C588.404 441.31 589.234 439.13 590.474 432.01C591.044 428.62 591.544 427.42 590.414 424.15L588.543 422.98C581.253 425.75 583.024 439.88 583.674 446.3L582.104 452.73C582.034 444.51 581.824 436.28 581.484 428.07C568.584 430.19 554.284 433.69 541.214 436.3L540.964 415.78C551.844 413.2 562.884 410.41 573.894 408.5C574.034 394.84 573.954 381.18 573.654 367.52C567.424 368.27 557.644 370.22 551.784 372.26C548.974 372.57 542.714 374.02 539.674 374.62C539.594 367.06 539.534 360.37 538.864 352.81C545.274 352.44 570.714 345.97 579.624 344.31C579.724 338.32 579.624 333.93 579.234 327.95L580.104 327.57L583.004 323.62L587.904 320.77C587.804 320.15 587.714 319.52 587.634 318.89C587.054 313.96 587.494 312.94 590.504 309.09Z" fill="#0D74C8"/>
<path d="M590.504 309.09C590.664 312.85 591.253 321.94 590.793 325.19L589.883 325.66L587.903 320.77C587.803 320.15 587.713 319.52 587.633 318.89C587.053 313.96 587.494 312.94 590.504 309.09Z" fill="#0D74C8"/>
<path d="M488.854 317.51C514.864 311.24 552.634 302.06 578.774 297.53C578.784 307.67 578.944 317.81 579.234 327.95C579.624 333.93 579.724 338.32 579.624 344.31C570.714 345.97 545.274 352.44 538.864 352.81C545.774 339.17 561.104 348.96 569.474 337.32C571.684 334.25 571.504 329.99 572.634 326.33C572.914 331.68 572.224 337.1 573.714 341.94H575.154C579.384 335.03 574.543 326.47 574.553 319.01C574.573 313.39 576.263 309.72 575.063 303.9L573.354 301.64C569.844 302.35 566.104 302.62 563.364 304.52C566.144 305.08 568.434 305.54 571.174 306.33L570.793 307.59C563.423 309.91 559.743 303.46 548.063 312.46C540.323 313.01 524.434 312.88 517.954 315.28L519.494 315.46C513.594 317.13 500.233 320.1 496.553 324.08C494.173 333.9 495.114 359.23 495.034 369.89L494.384 483.98C496.324 485.14 501.704 486.79 504.114 487.62C524.944 480.05 547.054 478.15 568.404 472.42C570.184 471.94 572.464 469.41 573.744 468.07L576.244 470.57L577.854 470.07C578.924 467.81 578.814 435.09 577.704 431.84C574.944 431.96 574.304 431.48 572.534 432.84L574.854 435.72C571.794 440.66 546.314 438.91 540.724 437.5C536.734 433.49 537.614 430.1 537.284 425.42C535.964 407.06 546.583 409.92 560.043 406.55C564.933 405.33 560.024 402.88 564.464 401.32L566.374 402.35C566.494 400.04 566.624 400.78 565.884 398.72L567.084 397.36L568.914 402.61L570.364 402.4C570.394 397.59 570.794 376.68 570.034 373.05C567.484 370.68 568.954 371.24 565.484 371.3L565.404 372.1L567.664 373.78L566.563 374.81L564.964 374.3C559.224 372.5 557.864 372.03 551.784 372.26C557.644 370.22 567.424 368.27 573.654 367.52C573.954 381.18 574.034 394.84 573.894 408.5C562.884 410.41 551.844 413.2 540.964 415.78L541.214 436.3C554.284 433.69 568.584 430.19 581.484 428.07C581.824 436.28 582.034 444.51 582.104 452.73C581.944 459.6 581.824 466.48 581.744 473.36L491.124 493.63C490.694 475.66 490.374 457.7 490.164 439.73C490.034 434.69 490.084 431.44 489.144 426.43C489.904 416.57 489.234 399.6 489.134 389.27C488.774 365.35 488.684 341.43 488.854 317.51Z" fill="#F8F7F9"/>
<path d="M259.504 368.28C272.964 363.82 303.884 357.48 318.324 354.75C321.584 363.93 326.604 388.84 329.124 399.66L350.494 491.77C353.314 501.82 354.474 512.92 357.104 522.59C341.264 526.03 323.434 530.6 307.744 533.21C306.384 526.68 304.614 519.13 303.554 512.63C297.254 514.1 287.734 516.64 281.574 517.14C281.574 524.52 280.374 532.33 279.444 539.69C270.734 542.11 263.034 544.32 254.104 545.97C247.054 547.93 235.004 551.31 227.904 551.49C227.854 547 228.584 545.48 226.444 542.1C219.284 540.33 220.374 541.04 220.294 534.05C220.284 534.14 226.364 518.84 226.824 517.63L227.004 516.75L229.294 516.17C230.874 518.62 230.904 520.23 231.384 523.08L232.754 524.42L233.854 523.75C233.464 516.47 242.194 469.3 244.044 459.2C249.454 429.7 253.454 397.37 259.504 368.28Z" fill="#F8F7F9"/>
<path d="M350.494 491.77C353.314 501.82 354.474 512.92 357.104 522.59C341.264 526.03 323.434 530.6 307.744 533.21C306.384 526.68 304.613 519.13 303.553 512.63C297.253 514.1 287.733 516.64 281.573 517.14C281.703 516.28 282.234 514.57 282.484 513.67C304.484 505.46 302.984 508.21 312.234 524.45C312.894 525.6 317.474 526.55 318.984 526.27C326.834 524.83 334.873 522.85 342.803 521.55C343.903 520.26 344.804 519.2 345.514 518.37L351.774 520.78C354.764 515.89 349.004 502.97 348.874 496.75C348.874 496.75 350.364 492.19 350.494 491.77Z" fill="#F8F7F9"/>
<path d="M227.004 516.75L229.294 516.17C230.874 518.62 230.904 520.23 231.384 523.08L232.754 524.42L231.854 526.79C231.994 532.06 229.604 546.47 227.904 551.49C227.854 547 228.584 545.48 226.444 542.1C219.284 540.33 220.374 541.04 220.294 534.05C220.284 534.14 226.364 518.84 226.824 517.63L227.004 516.75Z" fill="#0D74C8"/>
<path d="M232.754 524.42L233.854 523.75C234.714 530.45 232.034 539.06 236.244 543.48C241.584 545.2 248.484 545.71 254.104 545.97C247.054 547.93 235.004 551.31 227.904 551.49C229.604 546.47 231.994 532.06 231.854 526.79L232.754 524.42Z" fill="#F8F7F9"/>
<path d="M289.964 432.28C289.994 429.2 289.443 428.08 290.833 425.92C293.423 432.32 293.904 437.95 293.854 444.72C294.564 453.88 296.524 465.73 298.244 474.66L286.024 477.44C286.764 462.65 289.124 447.64 289.964 432.28Z" fill="#0D74C8"/>
<path d="M289.964 432.28C289.994 429.2 289.443 428.08 290.833 425.92C293.423 432.32 293.903 437.95 293.853 444.72C292.733 441.96 292.604 437.23 291.424 433.08L289.964 432.28Z" fill="#0D74C8"/>
<path d="M165.834 386.72C185.844 379.14 196.244 377.92 217.644 381.36C217.904 393.31 217.674 407.28 218.234 418.91C228.904 444.26 192.064 427 180.204 434.18C178.144 437.93 178.684 435.93 178.934 440.5C182.524 446.53 186.764 443.23 190.394 451.36C227.014 461.79 232.294 482.61 227.004 516.75L226.824 517.63C226.364 518.84 220.284 534.14 220.294 534.05C196.294 566.97 170.054 574.42 130.544 568.82C129.814 552.75 129.414 536.66 129.334 520.56C138.404 521.92 171.324 526.09 176.574 514.33C183.244 499.37 160.154 496.59 150.824 492.44C120.764 479.09 121.014 444.43 132.394 418.24C132.064 415.4 130.544 410.72 129.724 407.84C130.904 404.69 129.994 406.05 132.814 403.81C135.684 404.16 134.774 404.28 137.504 403.74C137.494 402.38 137.404 401.24 137.164 399.91C144.674 393.84 154.994 391.37 163.184 384.03C164.094 385.18 164.724 385.83 165.834 386.72Z" fill="#F8F7F9"/>
<path d="M218.234 418.91C228.904 444.26 192.064 427 180.204 434.18C178.144 437.93 178.684 435.93 178.934 440.5C182.524 446.53 186.764 443.23 190.394 451.36C159.334 439.23 180.143 425.04 201.563 427.19C206.723 427.71 212.244 427.98 217.494 428.53C218.974 426.24 218.344 421.91 218.234 418.91Z" fill="#0D74C8"/>
<path d="M132.394 418.24C132.064 415.4 130.544 410.72 129.724 407.84C130.904 404.69 129.994 406.05 132.814 403.81C135.684 404.16 134.774 404.28 137.504 403.74C137.494 402.38 137.404 401.24 137.164 399.91C144.674 393.84 154.994 391.37 163.184 384.03C164.094 385.18 164.723 385.83 165.833 386.72C149.143 395.6 141.754 401.82 132.394 418.24Z" fill="#0D74C8"/>
<path d="M214.433 384.29C214.323 397.73 214.814 410.85 215.264 424.29L207.683 424.68L206.933 423.95C209.883 422.8 209.233 423.58 210.933 421.45C205.453 416.9 182.123 421.99 176.933 427.73C173.933 431.05 171.623 442.81 174.903 445.92C183.503 454.08 208.523 463.17 214.813 471.8L215.484 472.74C215.874 469.68 215.224 470.37 216.734 468.5C231.384 487.39 227.653 530.6 206.303 544.93C200.533 548.8 199.764 553.14 192.534 556.73C173.924 565.96 159.963 565.81 140.013 564.49C137.553 555.81 137.374 542.65 136.974 533.34C135.084 543.96 138.623 553.91 135.243 565.42L135.183 566.18L133.873 565.66C133.293 562.69 132.584 530.74 132.694 526.51C137.904 520.04 159.914 533.28 178.024 518.17L179.423 519.81L180.623 519.67C181.213 514.34 183.053 501.11 179.163 497.31L178.514 500.64C173.864 499.14 171.253 493.08 168.293 492.25C163.383 490.88 158.283 492.24 152.813 489.62L152.974 488.19C155.364 488.93 157.044 489.7 159.534 489.47C157.464 485.72 147.654 487.54 144.224 483.94L146.014 482.63C145.124 478.6 132.523 470.62 133.793 467.2C139.373 453.23 130.943 438.68 133.783 425.45C135.163 419.04 158.493 395.44 163.903 391.78C166.403 392.39 169.873 393.51 171.803 391.5L168.714 389.33L169.014 388.63C179.384 387.3 195.254 383.1 205.214 387.3C208.684 388.76 209.403 394.16 210.343 397.51C212.183 395.93 211.393 396.87 212.133 394.15C210.993 390.02 210.553 389.24 210.873 385.08L214.433 384.29Z" fill="#F8F7F9"/>
<path d="M640.883 169.4C647.623 168.86 658.713 166.46 665.603 164.91C666.523 187.02 665.713 209.14 666.663 231.18C673.473 229.55 680.324 228.06 687.204 226.7C687.364 232.84 687.314 244.7 688.004 250.38C686.134 266.2 671.664 253 666.004 258.73L669.494 260.54C661.744 266.57 651.473 265.45 643.353 260.93L640.633 261.18C639.733 261.41 639.034 261.17 638.004 261.04C634.934 259.1 634.873 258.1 633.543 254.73L631.833 257.17L632.133 262.69L632.984 264.58C631.034 266.2 631.754 265.87 629.474 266.8L630.714 268.28C627.554 269.52 616.493 267.79 612.593 267.09C608.573 266.97 588.573 272.62 582.653 273.71C581.483 247.8 581.743 208.73 582.583 183.01L630.133 172.45C634.793 170.05 635.713 169.37 640.883 169.4Z" fill="#F8F7F9"/>
<path d="M640.884 169.4C647.624 168.86 658.714 166.46 665.604 164.91C666.524 187.02 665.714 209.14 666.664 231.18C673.474 229.55 680.324 228.06 687.204 226.7C687.364 232.84 687.314 244.7 688.004 250.38C686.134 266.2 671.664 253 666.004 258.73L669.494 260.54C661.744 266.57 651.474 265.45 643.354 260.93L640.634 261.18L640.823 259.88C641.223 250.17 640.944 238.43 640.844 228.64L639.894 227.19C640.524 220.5 640.454 212.32 639.984 205.61C639.304 201.51 638.844 197.82 638.364 193.7C637.924 196.11 637.574 196.27 636.224 198.38C632.804 194.28 633.214 189.82 633.864 184.81L633.654 184.41L631.704 185.04C631.734 180.89 632.414 175.57 630.134 172.45C634.794 170.05 635.714 169.37 640.884 169.4Z" fill="#F8F7F9"/>
<path d="M666.664 231.18C673.474 229.55 680.324 228.06 687.204 226.7C687.364 232.84 687.314 244.7 688.004 250.38C686.134 266.2 671.664 253 666.004 258.73L669.494 260.54C661.744 266.57 651.474 265.45 643.354 260.93L640.634 261.18L640.823 259.88C641.223 250.17 640.944 238.43 640.844 228.64C644.654 237.43 642.083 249.01 645.063 254.34C651.483 255.13 673.724 251.13 677.514 246.64C686.224 236.33 675.044 231.54 666.664 231.18Z" fill="#F8F7F9"/>
<path d="M640.823 259.88C647.463 259.94 679.404 252.13 688.004 250.38C686.134 266.2 671.664 253 666.004 258.73L669.494 260.54C661.744 266.57 651.474 265.45 643.354 260.93L640.634 261.18L640.823 259.88Z" fill="#0D74C8"/>
<path d="M630.134 172.45C634.794 170.05 635.714 169.37 640.884 169.4C638.914 175.86 640.474 197.59 639.984 205.61C639.304 201.51 638.844 197.82 638.364 193.7C637.924 196.11 637.574 196.27 636.224 198.38C632.804 194.28 633.214 189.82 633.864 184.81L633.654 184.41L631.704 185.04C631.734 180.89 632.414 175.57 630.134 172.45Z" fill="#0D74C8"/>
<path d="M633.653 184.41C632.643 180.7 632.464 178.65 635.234 175.45C639.044 177.99 639.464 182.32 637.214 186.11L633.863 184.81L633.653 184.41Z" fill="#0D74C8"/>
<path d="M631.703 185.04L633.653 184.41L633.863 184.81C633.213 189.82 632.804 194.28 636.224 198.38C637.574 196.27 637.923 196.11 638.363 193.7C638.843 197.82 639.304 201.51 639.984 205.61C640.454 212.32 640.523 220.5 639.893 227.19L640.843 228.64C640.943 238.43 641.223 250.17 640.823 259.88L640.633 261.18C639.733 261.41 639.034 261.17 638.004 261.04C634.934 259.1 634.873 258.1 633.543 254.73L631.833 257.17C631.923 251.53 631.763 245.53 631.703 239.86L619.593 241.58C614.963 239 620.083 241.79 618.173 235.13C614.633 232.62 613.333 233.25 608.583 232.81C611.393 230.72 623.443 229.12 627.573 228.4C627.593 222.02 628.793 211.3 624.813 207.12C620.803 208.15 612.404 210.94 608.984 208.94C607.954 205.35 607.633 203.85 609.593 200.84C615.803 197.12 624.063 196.58 631.433 195.34L631.703 185.04Z" fill="#0D74C8"/>
<path d="M639.894 227.19L640.844 228.64C640.944 238.43 641.223 250.17 640.823 259.88L640.634 261.18C639.734 261.41 639.034 261.17 638.004 261.04C634.934 259.1 634.873 258.1 633.543 254.73L633.594 245.6L634.494 239.33C636.794 237.08 635.854 237.76 639.954 237.56L639.894 227.19Z" fill="#0D74C8"/>
<path d="M633.594 245.6L634.494 239.33C636.794 237.08 635.854 237.76 639.954 237.56L639.434 244.43C637.164 246.12 637.054 245.52 633.594 245.6Z" fill="#0D74C8"/>
<path d="M608.984 208.94L609.504 207.1C613.174 205.7 623.324 202.11 626.384 204.93L624.813 207.12C620.803 208.15 612.404 210.94 608.984 208.94Z" fill="#0D74C8"/>
<path d="M608.583 232.81C613.333 233.25 614.634 232.62 618.174 235.13C620.084 241.79 614.963 239 619.593 241.58C615.413 242.58 613.904 243.67 610.214 242.53C608.134 239.97 608.623 236.29 608.583 232.81Z" fill="#0D74C8"/>
<path d="M612.594 267.09C618.214 265.35 626.194 263.93 632.134 262.69L632.984 264.58C631.034 266.2 631.754 265.87 629.474 266.8L630.714 268.28C627.554 269.52 616.494 267.79 612.594 267.09Z" fill="#0D74C8"/>
<path d="M515.813 197.39C527.603 194.81 540.773 190.92 552.803 191.88C585.163 194.47 581.913 256.91 561.833 271C554.933 282.11 526.154 286.05 513.994 288.18L513.313 228.49C513.253 222.3 511.543 200.49 515.813 197.39Z" fill="#F8F7F9"/>
<path d="M515.813 197.39C527.603 194.81 540.773 190.92 552.803 191.88C585.163 194.47 581.913 256.91 561.833 271C561.793 264.78 566.974 262.55 569.514 256.62C572.634 249.31 566.354 238.77 574.504 235.69C574.604 232.03 572.213 225.72 572.113 222.79C571.103 194.13 558.943 203.67 550.053 193.7C546.893 193.11 542.654 195.17 539.434 196.34C541.794 198.23 540.543 197.44 544.353 197.68L540.803 197.5L540.353 197.97C536.093 198.17 535.253 198.47 531.173 199.83C526.183 200.76 519.964 200.52 516.744 201.89C517.524 213.2 518.074 272.77 522.484 279.16C538.514 285.78 552.673 269.5 561.833 271C554.933 282.11 526.154 286.05 513.994 288.18L513.313 228.49C513.253 222.3 511.543 200.49 515.813 197.39Z" fill="#F8F7F9"/>
<path d="M539.083 214.41C544.053 214.58 546.843 215.54 548.333 220.79C550.903 229.86 550.974 246.33 546.984 254.79C544.724 257.33 543.724 259.23 540.384 258.84C539.384 253.85 539.373 222.57 539.083 214.41Z" fill="#0D74C8"/>
<path d="M93.8937 54.9599C96.8737 54.3299 97.1936 54.1999 100.364 54.2199C103.134 57.9199 101.164 60.1699 102.954 65.4399L103.484 67.9099C101.954 75.4599 101.984 77.2399 102.194 84.8599C100.304 83.2999 99.1237 80.2699 97.9137 77.9099C97.1437 82.6399 105.834 84.1399 90.9836 91.7999C90.0036 99.2999 91.9637 104.01 90.6537 110.61C88.3937 113.91 86.0337 113.87 81.4337 114.75C77.6237 115.46 73.8136 116.13 69.9936 116.77L70.2336 129.92C75.2136 127.42 88.5737 125.44 94.6537 124.31L94.7637 148.99C77.1237 152.12 59.8637 157.32 42.3137 160.05C41.6337 145.31 41.4836 129.69 41.1036 114.87C40.7636 98.7599 40.2137 82.3599 40.8137 66.2799C48.5637 64.8499 56.9137 62.83 64.8037 61.26C72.9537 59.06 85.7737 55.3599 93.8937 54.9599Z" fill="#F8F7F9"/>
<path d="M41.1035 114.87C47.0135 125.37 42.5235 150.92 46.6135 155.28C53.0535 154.83 56.5936 152.52 61.4336 152.41C60.7136 151.16 60.8935 151.22 59.8835 150.26C64.3035 149.81 79.1936 148.65 82.8336 147.18C85.9436 143.23 87.7636 141.54 87.4436 136.88C82.8136 130.42 76.5835 131.22 70.2335 129.92C75.2135 127.42 88.5736 125.44 94.6536 124.31L94.7635 148.99C77.1236 152.12 59.8636 157.32 42.3136 160.05C41.6336 145.31 41.4835 129.69 41.1035 114.87Z" fill="#F8F7F9"/>
<path d="M93.8934 54.9599C96.8734 54.3299 97.1934 54.1999 100.363 54.2199C103.133 57.9199 101.163 60.1699 102.953 65.4399L103.483 67.9099C101.953 75.4599 101.983 77.2399 102.193 84.8599C100.303 83.2999 99.1235 80.2699 97.9135 77.9099C97.1435 82.6399 105.833 84.1399 90.9834 91.7999C90.0034 99.2999 91.9634 104.01 90.6534 110.61C90.3234 104.89 90.9434 96.8799 88.3934 92.7999C84.8034 90.9299 84.7635 91.8599 79.6835 92.7099C76.6735 93.3599 72.7534 94.3599 69.7634 94.5699C69.1634 91.3899 69.0235 89.6799 68.8135 86.4399C70.3635 82.9699 69.1334 84.35 73.1234 82.64C80.7534 81.92 85.1835 80.1499 93.5835 79.8199C94.1935 73.2799 93.8734 61.8499 93.8934 54.9599Z" fill="#0D74C8"/>
<path d="M73.1234 82.6399C80.7534 81.9199 85.1835 80.1498 93.5835 79.8198L95.7834 83.7499C94.3634 88.6999 84.0935 87.1498 77.8435 89.5698C78.4935 92.3198 77.7135 91.4498 79.6835 92.7098C76.6735 93.3598 72.7534 94.3598 69.7634 94.5698C69.1634 91.3898 69.0235 89.6798 68.8135 86.4398C70.3635 82.9698 69.1334 84.3499 73.1234 82.6399Z" fill="#0D74C8"/>
<path d="M69.7637 94.5699C69.9937 90.7899 69.7937 89.2699 71.3837 85.9399L73.7137 86.0399C74.8937 87.2099 75.3637 87.6299 76.7137 88.6899L77.8438 89.5699C78.4937 92.3199 77.7137 91.45 79.6837 92.71C76.6737 93.36 72.7537 94.3599 69.7637 94.5699Z" fill="#0D74C8"/>
<path d="M64.8037 61.26C72.9537 59.06 85.7737 55.36 93.8937 54.96C93.8737 61.85 94.1937 73.2799 93.5837 79.8199C85.1837 80.1499 80.7537 81.92 73.1237 82.64C75.8637 78.3 80.0137 77.7 84.0137 74.97C89.4337 71.27 86.0837 60.64 80.7537 60.71C76.9337 60.76 71.4638 61.71 66.2238 61.36L64.8037 61.26Z" fill="#F8F7F9"/>
<path d="M103.504 52.35C112.364 50.49 122.204 48.2099 131.064 46.7799C131.594 68.2699 131.884 90.17 132.664 111.61L133.324 113.8C136.574 115.06 150.123 111.41 154.543 110.68L154.764 135.55C146.244 137.22 137.744 139.05 129.284 141.03C121.724 142.94 112.824 144.61 105.104 146.26C105.014 120.47 103.744 93.9099 103.484 67.9099L102.954 65.4399L103.504 52.35Z" fill="#F8F7F9"/>
<path d="M103.504 52.35C112.364 50.49 122.204 48.2099 131.064 46.7799C131.594 68.2699 131.884 90.17 132.664 111.61C126.854 103.6 128.374 62.2499 128.384 50.0399C125.084 51.1099 123.654 50.87 122.164 53.11L126.544 54.76C122.814 58.57 117.374 54.86 111.614 57.71C101.884 67.43 109.314 125.43 109.464 141.25C117.024 140.62 121.684 140.34 129.284 141.03C121.724 142.94 112.824 144.61 105.104 146.26C105.014 120.47 103.744 93.9099 103.484 67.9099L102.954 65.4399L103.504 52.35Z" fill="#F8F7F9"/>
<path d="M476.724 421.76C480.804 420.35 481.014 420.86 484.924 423.27L485.674 422.92C484.544 419.6 483.304 418.12 484.214 415.55L484.664 416.98C485.574 419.83 487.264 424.21 489.144 426.43C490.084 431.44 490.034 434.69 490.164 439.73L485.293 439.63C479.273 445.73 490.573 465.46 486.333 472.62C485.653 469.8 485.064 467.57 484.204 464.8L483.104 464.72C480.494 469.32 480.844 471.53 481.214 476.84L480.214 477.51C478.384 471.29 480.384 467.4 479.644 461.48C479.494 459.48 480.294 455.4 480.474 453.05C481.494 440.08 481.954 433.87 476.724 421.76Z" fill="#0D74C8"/>
<path d="M102.513 123.32C101.633 130.46 105.534 138.3 102.594 148.71C98.0435 140.59 100.753 132.24 102.513 123.32Z" fill="#0D74C8"/>
<path d="M580.104 327.57C580.564 323.09 580.014 317.17 580.484 311.71L581.563 312.18C584.193 315.75 583.354 319.22 583.004 323.62L580.104 327.57Z" fill="#0D74C8"/>
<path d="M745.991 560.78C745.991 610.609 705.479 651 655.491 651C605.504 651 565 610.609 565 560.78C565 510.951 605.512 470.561 655.5 470.561C705.488 470.561 746 510.951 746 560.78" fill="#FFE000"/>
<path d="M612.01 579.466C621.642 577.341 628.847 568.791 628.847 558.552C628.847 546.72 619.223 537.134 607.364 537.134C595.505 537.134 585.881 546.72 585.881 558.552V590.872H594.474V576.166C603.172 585.221 615.433 590.872 629.004 590.872V583.219C622.926 583.219 617.171 581.86 612.01 579.466M594.57 558.7C594.57 551.552 600.386 545.745 607.574 545.745C614.761 545.745 620.56 551.552 620.56 558.7C620.56 565.849 614.761 571.656 607.574 571.656C600.386 571.656 594.57 565.857 594.57 558.7Z" fill="black"/>
<path fill-rule="evenodd" clip-rule="evenodd" d="M657.118 537.408C645.25 537.408 635.626 547.003 635.626 558.836V591.164H644.219V575.979C647.817 578.661 652.271 580.263 657.118 580.263C668.986 580.263 678.601 570.677 678.601 558.845C678.601 547.012 668.986 537.417 657.118 537.417M657.153 571.374C650.132 571.374 644.438 565.705 644.438 558.705C644.438 551.705 650.132 546.037 657.153 546.037C664.174 546.037 669.851 551.705 669.851 558.705C669.851 565.705 664.157 571.374 657.153 571.374" fill="black"/>
<path fill-rule="evenodd" clip-rule="evenodd" d="M703.619 537.408C691.751 537.408 682.136 547.003 682.136 558.836V591.164H690.729V575.979C694.318 578.661 698.781 580.263 703.619 580.263C715.496 580.263 725.111 570.677 725.111 558.845C725.111 547.012 715.496 537.417 703.619 537.417M703.654 571.374C696.624 571.374 690.938 565.705 690.938 558.705C690.938 551.705 696.624 546.037 703.654 546.037C710.684 546.037 716.351 551.705 716.351 558.705C716.351 565.705 710.666 571.374 703.654 571.374Z" fill="black"/>
</svg>
